<mxfile host="65bd71144e">
    <diagram name="Page-1" id="KY69GH7PF-7IZM2q5loz">
        <mxGraphModel dx="1674" dy="773" grid="1" gridSize="10" guides="1" tooltips="1" connect="0" arrows="1" fold="1" page="1" pageScale="1" pageWidth="700" pageHeight="1000" math="0" shadow="0">
            <root>
                <mxCell id="0"/>
                <mxCell id="1" parent="0"/>
                <mxCell id="72q_MaU4vVJFjJXsk9MU-1" value="&lt;p style=&quot;margin:0px;margin-top:4px;text-align:center;&quot;&gt;&lt;i&gt;&amp;lt;&amp;lt;Interface&amp;gt;&amp;gt;&lt;/i&gt;&lt;br&gt;&lt;b&gt;IDataSource&lt;/b&gt;&lt;/p&gt;&lt;hr size=&quot;1&quot;&gt;&lt;p style=&quot;margin:0px;margin-left:4px;&quot;&gt;+ write(data: string):void&lt;br&gt;+ read(index: number): string;&lt;/p&gt;" style="verticalAlign=top;align=left;overflow=fill;fontSize=12;fontFamily=Helvetica;html=1;" parent="1" vertex="1">
                    <mxGeometry x="50" y="40" width="180" height="80" as="geometry"/>
                </mxCell>
                <mxCell id="72q_MaU4vVJFjJXsk9MU-2" value="DataStorage" style="swimlane;fontStyle=1;align=center;verticalAlign=top;childLayout=stackLayout;horizontal=1;startSize=26;horizontalStack=0;resizeParent=1;resizeParentMax=0;resizeLast=0;collapsible=1;marginBottom=0;" parent="1" vertex="1">
                    <mxGeometry x="40" y="160" width="200" height="86" as="geometry"/>
                </mxCell>
                <mxCell id="72q_MaU4vVJFjJXsk9MU-3" value="- storage():string[ ] = [ ]" style="text;strokeColor=none;fillColor=none;align=left;verticalAlign=top;spacingLeft=4;spacingRight=4;overflow=hidden;rotatable=0;points=[[0,0.5],[1,0.5]];portConstraint=eastwest;" parent="72q_MaU4vVJFjJXsk9MU-2" vertex="1">
                    <mxGeometry y="26" width="200" height="26" as="geometry"/>
                </mxCell>
                <mxCell id="72q_MaU4vVJFjJXsk9MU-4" value="" style="line;strokeWidth=1;fillColor=none;align=left;verticalAlign=middle;spacingTop=-1;spacingLeft=3;spacingRight=3;rotatable=0;labelPosition=right;points=[];portConstraint=eastwest;strokeColor=inherit;" parent="72q_MaU4vVJFjJXsk9MU-2" vertex="1">
                    <mxGeometry y="52" width="200" height="8" as="geometry"/>
                </mxCell>
                <mxCell id="72q_MaU4vVJFjJXsk9MU-17" value="+ read(index: number): string;" style="text;strokeColor=none;fillColor=none;align=left;verticalAlign=top;spacingLeft=4;spacingRight=4;overflow=hidden;rotatable=0;points=[[0,0.5],[1,0.5]];portConstraint=eastwest;" parent="72q_MaU4vVJFjJXsk9MU-2" vertex="1">
                    <mxGeometry y="60" width="200" height="26" as="geometry"/>
                </mxCell>
                <mxCell id="72q_MaU4vVJFjJXsk9MU-7" value="" style="endArrow=block;dashed=1;endFill=0;endSize=12;html=1;rounded=0;entryX=0.528;entryY=1.025;entryDx=0;entryDy=0;entryPerimeter=0;exitX=0.525;exitY=-0.018;exitDx=0;exitDy=0;exitPerimeter=0;" parent="1" source="72q_MaU4vVJFjJXsk9MU-2" target="72q_MaU4vVJFjJXsk9MU-1" edge="1">
                    <mxGeometry width="160" relative="1" as="geometry">
                        <mxPoint x="270" y="210" as="sourcePoint"/>
                        <mxPoint x="430" y="210" as="targetPoint"/>
                    </mxGeometry>
                </mxCell>
                <mxCell id="72q_MaU4vVJFjJXsk9MU-8" value="WordDecorator" style="swimlane;fontStyle=1;align=center;verticalAlign=top;childLayout=stackLayout;horizontal=1;startSize=26;horizontalStack=0;resizeParent=1;resizeParentMax=0;resizeLast=0;collapsible=1;marginBottom=0;" parent="1" vertex="1">
                    <mxGeometry x="320" y="160" width="160" height="112" as="geometry"/>
                </mxCell>
                <mxCell id="72q_MaU4vVJFjJXsk9MU-9" value="- component: IDataSource" style="text;strokeColor=none;fillColor=none;align=left;verticalAlign=top;spacingLeft=4;spacingRight=4;overflow=hidden;rotatable=0;points=[[0,0.5],[1,0.5]];portConstraint=eastwest;" parent="72q_MaU4vVJFjJXsk9MU-8" vertex="1">
                    <mxGeometry y="26" width="160" height="26" as="geometry"/>
                </mxCell>
                <mxCell id="72q_MaU4vVJFjJXsk9MU-10" value="" style="line;strokeWidth=1;fillColor=none;align=left;verticalAlign=middle;spacingTop=-1;spacingLeft=3;spacingRight=3;rotatable=0;labelPosition=right;points=[];portConstraint=eastwest;strokeColor=inherit;" parent="72q_MaU4vVJFjJXsk9MU-8" vertex="1">
                    <mxGeometry y="52" width="160" height="8" as="geometry"/>
                </mxCell>
                <mxCell id="72q_MaU4vVJFjJXsk9MU-16" value="+ write(data: string):void" style="text;strokeColor=none;fillColor=none;align=left;verticalAlign=top;spacingLeft=4;spacingRight=4;overflow=hidden;rotatable=0;points=[[0,0.5],[1,0.5]];portConstraint=eastwest;" parent="72q_MaU4vVJFjJXsk9MU-8" vertex="1">
                    <mxGeometry y="60" width="160" height="26" as="geometry"/>
                </mxCell>
                <mxCell id="72q_MaU4vVJFjJXsk9MU-5" value="+ read(index: number): string;" style="text;strokeColor=none;fillColor=none;align=left;verticalAlign=top;spacingLeft=4;spacingRight=4;overflow=hidden;rotatable=0;points=[[0,0.5],[1,0.5]];portConstraint=eastwest;" parent="72q_MaU4vVJFjJXsk9MU-8" vertex="1">
                    <mxGeometry y="86" width="160" height="26" as="geometry"/>
                </mxCell>
                <mxCell id="72q_MaU4vVJFjJXsk9MU-13" value="" style="endArrow=block;dashed=1;endFill=0;endSize=12;html=1;rounded=0;entryX=1.006;entryY=0.975;entryDx=0;entryDy=0;entryPerimeter=0;exitX=0.488;exitY=-0.047;exitDx=0;exitDy=0;exitPerimeter=0;" parent="1" source="72q_MaU4vVJFjJXsk9MU-8" target="72q_MaU4vVJFjJXsk9MU-1" edge="1">
                    <mxGeometry width="160" relative="1" as="geometry">
                        <mxPoint x="270" y="210" as="sourcePoint"/>
                        <mxPoint x="430" y="210" as="targetPoint"/>
                        <Array as="points">
                            <mxPoint x="398" y="118"/>
                        </Array>
                    </mxGeometry>
                </mxCell>
                <mxCell id="72q_MaU4vVJFjJXsk9MU-15" value="" style="endArrow=open;html=1;endSize=12;startArrow=diamondThin;startSize=14;startFill=0;edgeStyle=orthogonalEdgeStyle;align=left;verticalAlign=bottom;rounded=0;exitX=0.905;exitY=0.015;exitDx=0;exitDy=0;exitPerimeter=0;entryX=1.001;entryY=0.494;entryDx=0;entryDy=0;entryPerimeter=0;" parent="1" source="72q_MaU4vVJFjJXsk9MU-8" target="72q_MaU4vVJFjJXsk9MU-1" edge="1">
                    <mxGeometry x="-0.7787" y="-50" relative="1" as="geometry">
                        <mxPoint x="310" y="240" as="sourcePoint"/>
                        <mxPoint x="240" y="70" as="targetPoint"/>
                        <Array as="points">
                            <mxPoint x="465" y="79"/>
                            <mxPoint x="240" y="79"/>
                        </Array>
                        <mxPoint y="1" as="offset"/>
                    </mxGeometry>
                </mxCell>
                <mxCell id="72q_MaU4vVJFjJXsk9MU-18" value="BigWord" style="swimlane;fontStyle=1;align=center;verticalAlign=top;childLayout=stackLayout;horizontal=1;startSize=26;horizontalStack=0;resizeParent=1;resizeParentMax=0;resizeLast=0;collapsible=1;marginBottom=0;" parent="1" vertex="1">
                    <mxGeometry x="260" y="350" width="160" height="52" as="geometry"/>
                </mxCell>
                <mxCell id="72q_MaU4vVJFjJXsk9MU-6" value="+ write(data: string):void" style="text;strokeColor=none;fillColor=none;align=left;verticalAlign=top;spacingLeft=4;spacingRight=4;overflow=hidden;rotatable=0;points=[[0,0.5],[1,0.5]];portConstraint=eastwest;" parent="72q_MaU4vVJFjJXsk9MU-18" vertex="1">
                    <mxGeometry y="26" width="160" height="26" as="geometry"/>
                </mxCell>
                <mxCell id="72q_MaU4vVJFjJXsk9MU-28" value="ReverceWord" style="swimlane;fontStyle=1;align=center;verticalAlign=top;childLayout=stackLayout;horizontal=1;startSize=26;horizontalStack=0;resizeParent=1;resizeParentMax=0;resizeLast=0;collapsible=1;marginBottom=0;" parent="1" vertex="1">
                    <mxGeometry x="470" y="350" width="160" height="52" as="geometry"/>
                </mxCell>
                <mxCell id="72q_MaU4vVJFjJXsk9MU-29" value="+ write(data: string):void" style="text;strokeColor=none;fillColor=none;align=left;verticalAlign=top;spacingLeft=4;spacingRight=4;overflow=hidden;rotatable=0;points=[[0,0.5],[1,0.5]];portConstraint=eastwest;" parent="72q_MaU4vVJFjJXsk9MU-28" vertex="1">
                    <mxGeometry y="26" width="160" height="26" as="geometry"/>
                </mxCell>
                <mxCell id="72q_MaU4vVJFjJXsk9MU-30" value="" style="endArrow=none;html=1;rounded=0;entryX=0.506;entryY=-0.038;entryDx=0;entryDy=0;entryPerimeter=0;exitX=0.381;exitY=0;exitDx=0;exitDy=0;exitPerimeter=0;" parent="1" source="72q_MaU4vVJFjJXsk9MU-18" target="72q_MaU4vVJFjJXsk9MU-28" edge="1">
                    <mxGeometry width="50" height="50" relative="1" as="geometry">
                        <mxPoint x="320" y="280" as="sourcePoint"/>
                        <mxPoint x="370" y="230" as="targetPoint"/>
                        <Array as="points">
                            <mxPoint x="320" y="320"/>
                            <mxPoint x="550" y="320"/>
                        </Array>
                    </mxGeometry>
                </mxCell>
                <mxCell id="72q_MaU4vVJFjJXsk9MU-32" value="" style="endArrow=block;endSize=16;endFill=0;html=1;rounded=0;entryX=0.676;entryY=1.019;entryDx=0;entryDy=0;entryPerimeter=0;" parent="1" target="72q_MaU4vVJFjJXsk9MU-5" edge="1">
                    <mxGeometry width="160" relative="1" as="geometry">
                        <mxPoint x="430" y="320" as="sourcePoint"/>
                        <mxPoint x="430" y="260" as="targetPoint"/>
                    </mxGeometry>
                </mxCell>
            </root>
        </mxGraphModel>
    </diagram>
</mxfile>